<?xml version="1.0" standalone="no"?>
<!DOCTYPE svg PUBLIC "-//W3C//DTD SVG 20010904//EN"
 "http://www.w3.org/TR/2001/REC-SVG-20010904/DTD/svg10.dtd">
<svg version="1.0" xmlns="http://www.w3.org/2000/svg"
 width="512.000000pt" height="512.000000pt" viewBox="0 0 512.000000 512.000000"
 preserveAspectRatio="xMidYMid meet">
<metadata>
Created by potrace 1.14, written by Peter Selinger 2001-2017
</metadata>
<g transform="translate(0.000000,512.000000) scale(0.100000,-0.100000)"
fill="#000000" stroke="none">
<path d="M2379 5116 c-2 -2 -40 -6 -83 -10 -44 -4 -82 -9 -85 -11 -4 -2 -34
-7 -66 -10 -117 -14 -472 -111 -499 -136 -6 -5 -16 -9 -23 -9 -8 0 -42 -13
-76 -29 -34 -16 -84 -38 -110 -50 -242 -109 -555 -344 -762 -572 -82 -90 -108
-120 -166 -199 -95 -128 -135 -193 -231 -370 -91 -168 -183 -434 -227 -650
-38 -190 -46 -276 -46 -520 1 -184 4 -241 20 -345 3 -16 7 -43 9 -60 3 -24 34
-175 51 -245 27 -120 126 -373 203 -520 206 -393 506 -723 886 -972 244 -159
593 -305 847 -353 13 -3 35 -7 49 -10 161 -32 302 -43 525 -40 121 2 240 6
265 9 238 34 476 95 661 171 109 45 297 139 348 174 15 10 33 20 41 23 26 10
242 169 315 232 462 402 757 920 859 1512 25 144 31 227 31 444 0 243 -6 306
-47 505 -80 397 -257 770 -517 1093 -89 111 -234 260 -321 332 -30 25 -57 47
-60 51 -8 10 -198 149 -204 149 -2 0 -31 17 -63 39 -128 84 -332 180 -523 246
-87 31 -279 82 -340 91 -14 2 -38 6 -55 9 -29 4 -49 7 -140 21 -44 6 -460 15
-466 10z"/>
</g>
</svg>
