<?xml version="1.0" encoding="UTF-8"?>
<svg version="1.1" xmlns="http://www.w3.org/2000/svg" width="512" height="512">
<path d="M0 0 C1.28498383 -0.00960754 2.56996765 -0.01921509 3.89389038 -0.02911377 C5.29856183 -0.03396167 6.70323535 -0.03824052 8.10791016 -0.04199219 C9.54896038 -0.04774597 10.99001059 -0.05350367 12.43106079 -0.05926514 C15.45225378 -0.06976647 18.47342023 -0.07561485 21.49462891 -0.07910156 C25.36054334 -0.08458556 29.22610544 -0.10861485 33.09190941 -0.13707352 C36.06880714 -0.15572285 39.04562036 -0.1609067 42.02257156 -0.16243744 C43.44749503 -0.16545916 44.87241719 -0.17347151 46.29728317 -0.18662262 C48.29316965 -0.20372968 50.28920185 -0.19995132 52.28515625 -0.1953125 C53.4197226 -0.19895813 54.55428894 -0.20260376 55.72323608 -0.20635986 C59.17075635 0.20920193 61.00891414 1.0881646 63.77197266 3.16113281 C65.77197266 6.16113281 65.77197266 6.16113281 65.64697266 9.59863281 C64.6713277 13.57090158 63.95616478 14.69885403 60.77197266 17.16113281 C57.89923096 17.64215088 57.89923096 17.64215088 54.53466797 17.61523438 C53.2560791 17.61475098 51.97749023 17.61426758 50.66015625 17.61376953 C49.30679539 17.59362939 47.95344225 17.57296319 46.60009766 17.55175781 C45.36565918 17.54772949 44.1312207 17.54370117 42.859375 17.53955078 C38.24675642 17.51861776 33.63434966 17.46277242 29.02197266 17.41113281 C18.70947266 17.32863281 8.39697266 17.24613281 -2.22802734 17.16113281 C-2.22802734 45.54113281 -2.22802734 73.92113281 -2.22802734 103.16113281 C25.82197266 103.16113281 53.87197266 103.16113281 82.77197266 103.16113281 C82.44197266 85.01113281 82.11197266 66.86113281 81.77197266 48.16113281 C69.85158417 60.27923465 69.85158417 60.27923465 57.95898438 72.42456055 C56.45754322 73.94060716 54.95516468 75.45572623 53.45166016 76.96972656 C52.68345947 77.76350708 51.91525879 78.5572876 51.1237793 79.37512207 C48.07937849 82.42197408 45.68232633 84.7911361 41.66699219 86.4230957 C35.01057542 85.82077363 30.41579651 81.26011216 25.90869141 76.69628906 C25.39063431 76.18110214 24.87257721 75.66591522 24.33882141 75.13511658 C23.25547944 74.0538004 22.17585334 72.96874942 21.09985352 71.88012695 C19.45667428 70.22080695 17.79799311 68.57820031 16.13720703 66.93652344 C15.08090473 65.87823973 14.02553288 64.81902631 12.97119141 63.75878906 C12.23215828 63.02886497 12.23215828 63.02886497 11.47819519 62.28419495 C8.69458997 59.44308469 6.85973856 57.00734812 5.77197266 53.16113281 C5.96665384 49.9164465 6.17354899 47.915667 8.20947266 45.34863281 C10.31611124 43.74758749 11.77345082 43.16085126 14.39697266 42.66113281 C19.63097353 43.43654035 22.09954168 46.50591636 25.77197266 50.16113281 C26.34173828 50.72396973 26.91150391 51.28680664 27.49853516 51.86669922 C31.61731499 55.93780799 35.70277588 60.04049956 39.77197266 64.16113281 C45.54308378 59.38665282 50.76790807 54.21994942 55.99462891 48.86035156 C57.76681441 47.06093139 59.53961931 45.26212105 61.31298828 43.46386719 C64.08611095 40.64737212 66.85521148 37.8273548 69.61401367 34.99682617 C72.29199489 32.25236435 74.98551501 29.52399118 77.68212891 26.79785156 C78.50415298 25.946884 79.32617706 25.09591644 80.17311096 24.21916199 C80.95089401 23.43777359 81.72867706 22.65638519 82.5300293 21.85131836 C83.2061879 21.1610405 83.8823465 20.47076263 84.57899475 19.75956726 C87.32285224 17.75960351 89.41270805 17.41825727 92.77197266 17.16113281 C96.61821731 18.21010863 97.50888907 18.76650743 99.77197266 22.16113281 C99.97673579 24.86694804 100.06568017 27.47068628 100.0625 30.17749023 C100.06921722 30.99413147 100.07593445 31.81077271 100.08285522 32.65216064 C100.10188053 35.35703593 100.10576227 38.06166349 100.10791016 40.76660156 C100.11433703 42.64887087 100.12106531 44.53113917 100.12808228 46.41340637 C100.14006786 50.36359979 100.14376199 54.31370569 100.14257812 58.26391602 C100.14237534 63.31339267 100.16962948 68.36230393 100.20412254 73.41164684 C100.22642227 77.3022771 100.23041466 81.19277224 100.22935867 85.08345985 C100.23171185 86.94410454 100.24051936 88.80475312 100.25602341 90.6653347 C100.27573726 93.27655232 100.26982369 95.88656347 100.2578125 98.49780273 C100.26905151 99.25914017 100.28029053 100.0204776 100.29187012 100.80488586 C100.22823507 106.28063202 98.89471313 110.61742771 95.77197266 115.16113281 C89.92497543 119.8148653 85.26953836 120.31510417 78.02124023 120.33813477 C77.12657043 120.34470596 76.23190063 120.35127716 75.31011963 120.35804749 C72.3455802 120.37777735 69.38109147 120.3894434 66.41650391 120.39941406 C64.8965661 120.40552735 64.8965661 120.40552735 63.34592247 120.41176414 C57.98102395 120.43262515 52.61615101 120.44692585 47.2512207 120.45629883 C41.71752198 120.46735365 36.18422643 120.50174297 30.65067005 120.54147053 C26.38947314 120.56765419 22.12837195 120.57599231 17.86710167 120.57958031 C15.82781952 120.58444297 13.78854154 120.59604779 11.74933815 120.6146183 C8.8891295 120.63904307 6.02995939 120.63803836 3.16967773 120.63110352 C2.33353439 120.64391357 1.49739105 120.65672363 0.63591003 120.66992188 C-5.08854513 120.61955357 -9.44591763 119.37726392 -14.22802734 116.16113281 C-19.18033846 110.82787468 -19.38390689 107.10113928 -19.4050293 100.03320312 C-19.41160049 99.08669891 -19.41817169 98.1401947 -19.42494202 97.16500854 C-19.44470191 94.02309088 -19.45634398 90.88122109 -19.46630859 87.73925781 C-19.47038412 86.66738976 -19.47445965 85.5955217 -19.47865868 84.49117279 C-19.49953148 78.81735933 -19.51382763 73.14357014 -19.52319336 67.46972656 C-19.53425673 61.60735866 -19.56865262 55.74537044 -19.60836506 49.88313675 C-19.63450525 45.37753593 -19.64288293 40.87202588 -19.64647484 36.3663559 C-19.65134796 34.20540555 -19.66298251 32.04445946 -19.68151283 29.88358307 C-19.70584717 26.85762941 -19.70494939 23.83266207 -19.69799805 20.80664062 C-19.71080811 19.91498199 -19.72361816 19.02332336 -19.73681641 18.10464478 C-19.69104496 12.63391132 -18.90303401 9.48147221 -15.22802734 5.16113281 C-10.02275288 1.23061944 -6.44939353 0.038868 0 0 Z " fill="#000000" transform="translate(19.22802734375,195.8388671875)"/>
<path d="M0 0 C1.28498383 -0.00960754 2.56996765 -0.01921509 3.89389038 -0.02911377 C5.29856183 -0.03396167 6.70323535 -0.03824052 8.10791016 -0.04199219 C9.54896038 -0.04774597 10.99001059 -0.05350367 12.43106079 -0.05926514 C15.45225378 -0.06976647 18.47342023 -0.07561485 21.49462891 -0.07910156 C25.36054334 -0.08458556 29.22610544 -0.10861485 33.09190941 -0.13707352 C36.06880714 -0.15572285 39.04562036 -0.1609067 42.02257156 -0.16243744 C43.44749503 -0.16545916 44.87241719 -0.17347151 46.29728317 -0.18662262 C48.29316965 -0.20372968 50.28920185 -0.19995132 52.28515625 -0.1953125 C53.4197226 -0.19895813 54.55428894 -0.20260376 55.72323608 -0.20635986 C59.17075635 0.20920193 61.00891414 1.0881646 63.77197266 3.16113281 C65.77197266 6.16113281 65.77197266 6.16113281 65.64697266 9.59863281 C64.6713277 13.57090158 63.95616478 14.69885403 60.77197266 17.16113281 C57.89923096 17.64215088 57.89923096 17.64215088 54.53466797 17.61523438 C53.2560791 17.61475098 51.97749023 17.61426758 50.66015625 17.61376953 C49.30679539 17.59362939 47.95344225 17.57296319 46.60009766 17.55175781 C45.36565918 17.54772949 44.1312207 17.54370117 42.859375 17.53955078 C38.24675642 17.51861776 33.63434966 17.46277242 29.02197266 17.41113281 C18.70947266 17.32863281 8.39697266 17.24613281 -2.22802734 17.16113281 C-2.22802734 45.54113281 -2.22802734 73.92113281 -2.22802734 103.16113281 C25.82197266 103.16113281 53.87197266 103.16113281 82.77197266 103.16113281 C82.44197266 85.01113281 82.11197266 66.86113281 81.77197266 48.16113281 C70.18345368 59.90776147 70.18345368 59.90776147 58.6171875 71.67626953 C57.15656224 73.14858106 55.69518658 74.62014868 54.23291016 76.09082031 C53.48630127 76.85789307 52.73969238 77.62496582 51.97045898 78.4152832 C44.75747828 85.63303913 44.75747828 85.63303913 39.77197266 86.16113281 C34.35365886 84.55334804 30.88115386 81.85866641 26.94384766 77.82910156 C26.42816223 77.31487137 25.91247681 76.80064117 25.38116455 76.27082825 C24.30085642 75.18887086 23.22544263 74.10200619 22.15478516 73.01049805 C20.52454198 71.35124785 18.87638523 69.7115217 17.22509766 68.07324219 C16.17189735 67.01380454 15.11977634 65.95329262 14.06884766 64.89160156 C13.58132019 64.40700974 13.09379272 63.92241791 12.5914917 63.42314148 C9.52288936 60.26949525 7.44411128 57.23320385 5.77197266 53.16113281 C5.84376048 49.57174147 6.37259461 47.74483918 8.39697266 44.78613281 C11.87099801 42.4091681 13.62937312 42.40165623 17.77197266 43.16113281 C20.84085031 45.07142295 23.23676292 47.60181648 25.77197266 50.16113281 C26.97831157 51.35584271 28.18540693 52.54978906 29.39306641 53.74316406 C32.87375017 57.195278 36.32739317 60.67301229 39.77197266 64.16113281 C45.54042637 59.3924353 50.74718639 54.22567387 55.95947266 48.86035156 C57.72694284 47.06077768 59.49519548 45.26197202 61.26416016 43.46386719 C64.02984289 40.64867411 66.79065817 37.82937183 69.53857422 34.99682617 C72.20678617 32.24995567 74.89367634 29.52257856 77.58447266 26.79785156 C78.40133545 25.946884 79.21819824 25.09591644 80.05981445 24.21916199 C86.48684612 17.76171128 86.48684612 17.76171128 90.70166016 17.07446289 C93.78155377 17.16140327 95.31278965 17.33951577 97.77197266 19.16113281 C100.26864672 22.90614391 100.0675955 25.84045231 100.0625 30.17749023 C100.06921722 30.99413147 100.07593445 31.81077271 100.08285522 32.65216064 C100.10188053 35.35703593 100.10576227 38.06166349 100.10791016 40.76660156 C100.11433703 42.64887087 100.12106531 44.53113917 100.12808228 46.41340637 C100.14006786 50.36359979 100.14376199 54.31370569 100.14257812 58.26391602 C100.14237534 63.31339267 100.16962948 68.36230393 100.20412254 73.41164684 C100.22642227 77.3022771 100.23041466 81.19277224 100.22935867 85.08345985 C100.23171185 86.94410454 100.24051936 88.80475312 100.25602341 90.6653347 C100.27573726 93.27655232 100.26982369 95.88656347 100.2578125 98.49780273 C100.26905151 99.25914017 100.28029053 100.0204776 100.29187012 100.80488586 C100.22817421 106.28586916 98.88504134 110.60747851 95.77197266 115.16113281 C89.67308098 120.1164823 84.61837845 120.31355065 76.99951172 120.33813477 C75.67191833 120.34799156 75.67191833 120.34799156 74.31750488 120.35804749 C71.39086823 120.3777446 68.46428281 120.3894351 65.53759766 120.39941406 C64.0355843 120.40552735 64.0355843 120.40552735 62.50322723 120.41176414 C57.20316271 120.43260957 51.90312397 120.44691792 46.60302734 120.45629883 C41.13773657 120.46736012 35.67285327 120.50176137 30.20770645 120.54147053 C25.99712381 120.5676534 21.78663803 120.57599216 17.57598114 120.57958031 C15.56181842 120.5844419 13.5476599 120.59604365 11.53357697 120.6146183 C8.70939599 120.63904517 5.88626665 120.63803821 3.06201172 120.63110352 C2.23679016 120.64391357 1.4115686 120.65672363 0.56134033 120.66992188 C-5.13307445 120.61918401 -9.46979355 119.35391605 -14.22802734 116.16113281 C-19.18033846 110.82787468 -19.38390689 107.10113928 -19.4050293 100.03320312 C-19.41160049 99.08669891 -19.41817169 98.1401947 -19.42494202 97.16500854 C-19.44470191 94.02309088 -19.45634398 90.88122109 -19.46630859 87.73925781 C-19.47038412 86.66738976 -19.47445965 85.5955217 -19.47865868 84.49117279 C-19.49953148 78.81735933 -19.51382763 73.14357014 -19.52319336 67.46972656 C-19.53425673 61.60735866 -19.56865262 55.74537044 -19.60836506 49.88313675 C-19.63450525 45.37753593 -19.64288293 40.87202588 -19.64647484 36.3663559 C-19.65134796 34.20540555 -19.66298251 32.04445946 -19.68151283 29.88358307 C-19.70584717 26.85762941 -19.70494939 23.83266207 -19.69799805 20.80664062 C-19.71080811 19.91498199 -19.72361816 19.02332336 -19.73681641 18.10464478 C-19.69104496 12.63391132 -18.90303401 9.48147221 -15.22802734 5.16113281 C-10.02275288 1.23061944 -6.44939353 0.038868 0 0 Z " fill="#000000" transform="translate(19.22802734375,24.8388671875)"/>
<path d="M0 0 C0.88652252 -0.0049649 1.77304504 -0.00992981 2.68643188 -0.01504517 C5.62331923 -0.02966601 8.56015253 -0.03646923 11.49707031 -0.04199219 C13.53867596 -0.0477444 15.58028159 -0.05350213 17.62188721 -0.05926514 C21.90580497 -0.06977538 26.18970397 -0.07561767 30.47363281 -0.07910156 C35.95579111 -0.08458149 41.43770043 -0.10859879 46.91978073 -0.13707352 C51.13890297 -0.1557239 55.35796558 -0.16090681 59.57712555 -0.16243744 C61.59768279 -0.16545987 63.61823908 -0.17347454 65.6387558 -0.18662262 C68.47029889 -0.20373055 71.30123829 -0.20179105 74.1328125 -0.1953125 C75.37839432 -0.20913467 75.37839432 -0.20913467 76.6491394 -0.22323608 C83.29040197 -0.17578072 87.94438955 1.15067461 93.13769531 5.53613281 C97.55173632 10.83298202 97.62278883 15.61630163 97.61572266 22.23071289 C97.62243988 23.13542831 97.6291571 24.04014374 97.63607788 24.97227478 C97.65505084 27.95846067 97.65898184 30.94442168 97.66113281 33.93066406 C97.66756158 36.01185701 97.67429 38.09304906 97.68130493 40.17424011 C97.6932762 44.53618464 97.69698594 48.89804997 97.69580078 53.26000977 C97.69559769 58.83851954 97.72289103 64.41651934 97.7573452 69.99490833 C97.7796271 74.29386204 97.78363791 78.59269331 97.78258133 82.89169884 C97.78493567 84.94771773 97.79374977 87.00374008 97.80924606 89.05970192 C97.82893038 91.94128322 97.8230581 94.82176867 97.81103516 97.70336914 C97.82227417 98.54572113 97.83351318 99.38807312 97.84509277 100.25595093 C97.78496472 105.95198323 96.6229379 110.44239918 93.32519531 115.16113281 C87.47819809 119.8148653 82.82276101 120.31510417 75.57446289 120.33813477 C74.67979309 120.34470596 73.78512329 120.35127716 72.86334229 120.35804749 C69.89880286 120.37777735 66.93431412 120.3894434 63.96972656 120.39941406 C62.44978875 120.40552735 62.44978875 120.40552735 60.89914513 120.41176414 C55.53424661 120.43262515 50.16937366 120.44692585 44.80444336 120.45629883 C39.27074464 120.46735365 33.73744908 120.50174297 28.20389271 120.54147053 C23.94269579 120.56765419 19.68159461 120.57599231 15.42032433 120.57958031 C13.38104217 120.58444297 11.3417642 120.59604779 9.30256081 120.6146183 C6.44235215 120.63904307 3.58318205 120.63803836 0.72290039 120.63110352 C-0.11324295 120.64391357 -0.94938629 120.65672363 -1.81086731 120.66992188 C-7.53532247 120.61955357 -11.89269498 119.37726392 -16.67480469 116.16113281 C-21.62711581 110.82787468 -21.83068424 107.10113928 -21.85180664 100.03320312 C-21.85837784 99.08669891 -21.86494904 98.1401947 -21.87171936 97.16500854 C-21.89147925 94.02309088 -21.90312132 90.88122109 -21.91308594 87.73925781 C-21.91716146 86.66738976 -21.92123699 85.5955217 -21.92543602 84.49117279 C-21.94630883 78.81735933 -21.96060498 73.14357014 -21.9699707 67.46972656 C-21.98103407 61.60735866 -22.01542996 55.74537044 -22.0551424 49.88313675 C-22.08128259 45.37753593 -22.08966028 40.87202588 -22.09325218 36.3663559 C-22.09812531 34.20540555 -22.10975986 32.04445946 -22.12829018 29.88358307 C-22.15262452 26.85762941 -22.15172673 23.83266207 -22.14477539 20.80664062 C-22.15758545 19.91498199 -22.17039551 19.02332336 -22.18359375 18.10464478 C-22.1378223 12.63391132 -21.34981135 9.48147221 -17.67480469 5.16113281 C-11.70627359 0.6542828 -7.29573965 0.0097266 0 0 Z M-4.67480469 17.16113281 C-4.67480469 45.54113281 -4.67480469 73.92113281 -4.67480469 103.16113281 C23.37519531 103.16113281 51.42519531 103.16113281 80.32519531 103.16113281 C80.32519531 74.78113281 80.32519531 46.40113281 80.32519531 17.16113281 C52.27519531 17.16113281 24.22519531 17.16113281 -4.67480469 17.16113281 Z " fill="#000000" transform="translate(21.6748046875,366.8388671875)"/>
<path d="M0 0 C1.20044303 -0.00583219 2.40088607 -0.01166439 3.63770616 -0.01767331 C4.95296238 -0.01389399 6.2682186 -0.01011467 7.62333107 -0.00622082 C9.03746608 -0.00924149 10.45159945 -0.01313055 11.86572993 -0.01781338 C15.75168682 -0.02811303 19.63755166 -0.02590657 23.52351618 -0.02163279 C27.71447722 -0.01916912 31.9054159 -0.02817528 36.09636879 -0.03567028 C44.30702531 -0.04842946 52.51764914 -0.05020944 60.72831391 -0.04787002 C67.40147992 -0.04608801 74.074636 -0.04783399 80.74780083 -0.05209446 C81.69705122 -0.05268965 82.64630162 -0.05328484 83.62431718 -0.05389806 C85.55264039 -0.0551098 87.4809636 -0.05632393 89.40928681 -0.05754044 C107.49950919 -0.06842074 125.58971293 -0.06625121 143.67993636 -0.06015559 C160.23245402 -0.05498639 176.78491283 -0.0662411 193.33741884 -0.08525381 C210.32961298 -0.10462208 227.32177926 -0.11288996 244.31398451 -0.10913056 C253.85536614 -0.10721693 263.39669767 -0.10972181 272.9380703 -0.1238451 C281.06102369 -0.13574701 289.18389617 -0.1371772 297.30685066 -0.12505493 C301.45150058 -0.11915778 305.59600241 -0.11808984 309.74064255 -0.13005733 C313.53550496 -0.14088754 317.33009512 -0.13784709 321.12494464 -0.12379565 C323.14660814 -0.11988398 325.16828359 -0.13071919 327.18991888 -0.14209253 C333.52155212 -0.10424666 338.53071897 -0.02030774 344.04755592 3.25447559 C345.64630943 6.45198261 345.54921916 9.7840655 345.04755592 13.25447559 C342.71971312 16.49682808 340.88356551 17.54629911 337.04755592 18.25447559 C335.10518619 18.34667513 333.1599217 18.38356637 331.21536636 18.38590336 C330.01629768 18.3897445 328.817229 18.39358565 327.5818249 18.39754319 C326.26297372 18.39667671 324.94412254 18.39581023 323.58530617 18.39491749 C322.17132275 18.39750126 320.75734007 18.40051446 319.3433584 18.40392089 C315.45323599 18.41199247 311.56313203 18.41378055 307.67300224 18.41451836 C303.47932121 18.4163686 299.28564976 18.42391571 295.09197426 18.43065357 C285.92061447 18.44423777 276.74925905 18.45026153 267.57789087 18.45466423 C261.85300955 18.45742608 256.12812992 18.46166329 250.40324974 18.4661684 C234.55715542 18.47836038 218.71106245 18.48866036 202.86496353 18.4920435 C201.34360233 18.49237284 201.34360233 18.49237284 199.79150655 18.49270885 C198.77482455 18.49292712 197.75814254 18.4931454 196.71065199 18.49337029 C194.65042726 18.49381376 192.59020253 18.49426033 190.5299778 18.49470997 C189.5080328 18.4949314 188.4860878 18.49515283 187.43317477 18.49538097 C170.86698811 18.49933059 154.3008454 18.51678995 137.73467572 18.54006949 C120.73235178 18.56376943 103.73004991 18.5762447 86.72770917 18.57741141 C77.17907402 18.57832885 67.63049615 18.58409861 58.08187675 18.60223103 C49.95265444 18.61761359 41.82350711 18.62276334 33.69427301 18.61449292 C29.5456995 18.61058008 25.39727709 18.61154687 21.24872208 18.62555027 C17.45141132 18.63825104 13.65436578 18.63712556 9.85705559 18.62495956 C7.83161779 18.62206522 5.80617558 18.63396714 3.78077376 18.64638162 C1.97434749 18.63649685 1.97434749 18.63649685 0.13142776 18.62641239 C-1.4248312 18.62730802 -1.4248312 18.62730802 -3.01252973 18.62822175 C-6.55014518 18.1784909 -8.92833613 17.1282967 -11.95244408 15.25447559 C-13.86394077 11.2021026 -14.2651255 9.22930592 -12.88994408 4.94197559 C-9.52851804 0.27935238 -5.49623875 0.00459732 0 0 Z " fill="#000000" transform="translate(166.9524440765381,246.7455244064331)"/>
<path d="M0 0 C1.22070375 -0.00445784 2.44140751 -0.00891569 3.69910228 -0.01350862 C5.06604951 -0.01341931 6.43299673 -0.01322944 7.79994392 -0.01294994 C9.2425004 -0.01624761 10.68505596 -0.01997296 12.12761033 -0.02409142 C16.1059214 -0.03413045 20.08421739 -0.03783126 24.06253934 -0.04048073 C28.34756251 -0.04437809 32.63257367 -0.05395672 36.91758919 -0.0626936 C47.27207018 -0.08247276 57.62655217 -0.09252545 67.98104733 -0.10142139 C72.85293243 -0.10580137 77.72481644 -0.11116888 82.59670067 -0.11641026 C98.78413543 -0.13342298 114.97156951 -0.14791869 131.15901184 -0.155159 C135.36143558 -0.157069 139.56385932 -0.15898931 143.76628304 -0.16094494 C144.81081796 -0.16142868 145.85535289 -0.16191242 146.93154038 -0.16241082 C163.86457754 -0.17071688 180.79754417 -0.1960633 197.73055051 -0.22852562 C215.1011852 -0.26155645 232.47178399 -0.2796041 249.84245026 -0.28280324 C259.60122303 -0.28497189 269.35989294 -0.29377235 279.11863518 -0.31926441 C287.42693962 -0.34091707 295.73511623 -0.34904869 304.04344569 -0.33929763 C308.28496319 -0.33473725 312.52621661 -0.33673937 316.76769829 -0.35605907 C320.64769938 -0.37358021 324.52724162 -0.37278398 328.40724684 -0.35716178 C329.81371474 -0.35476878 331.2202135 -0.35919615 332.62663399 -0.37099043 C334.53313784 -0.38599296 336.4397973 -0.37410832 338.34631348 -0.36076355 C339.40692737 -0.36174036 340.46754127 -0.36271717 341.56029499 -0.36372358 C344.98499881 0.25894819 346.16379019 1.44257219 348.29899788 4.13422108 C349.02738758 6.87639409 348.86813783 9.36250953 348.29899788 12.13422108 C345.97115507 15.37657356 344.13500746 16.42604459 340.29899788 17.13422108 C338.35662815 17.22642061 336.41136366 17.26331185 334.46680832 17.26564884 C333.26773964 17.26948999 332.06867095 17.27333113 330.83326685 17.27728868 C329.51441567 17.27642219 328.19556449 17.27555571 326.83674812 17.27466297 C325.42276471 17.27724675 324.00878202 17.28025994 322.59480035 17.28366637 C318.70467795 17.29173795 314.81457399 17.29352603 310.9244442 17.29426384 C306.73076316 17.29611408 302.53709171 17.30366119 298.34341621 17.31039906 C289.17205642 17.32398326 280.000701 17.33000702 270.82933283 17.33440971 C265.10445151 17.33717156 259.37957188 17.34140877 253.6546917 17.34591389 C237.80859737 17.35810586 221.9625044 17.36840584 206.11640549 17.37178898 C204.59504428 17.37211833 204.59504428 17.37211833 203.04294851 17.37245433 C202.0262665 17.37267261 201.0095845 17.37289089 199.96209395 17.37311578 C197.90186922 17.37355925 195.84164449 17.37400581 193.78141975 17.37445545 C192.75947476 17.37467688 191.73752976 17.37489831 190.68461673 17.37512645 C174.11843007 17.37907608 157.55228735 17.39653543 140.98611768 17.41981497 C123.98379373 17.44351492 106.98149186 17.45599018 89.97915113 17.4571569 C80.43051598 17.45807434 70.88193811 17.46384409 61.33331871 17.48197651 C53.20409639 17.49735907 45.07494906 17.50250882 36.94571497 17.49423841 C32.79714146 17.49032557 28.64871905 17.49129235 24.50016403 17.50529575 C20.70285327 17.51799653 16.90580774 17.51687105 13.10849755 17.50470504 C11.08305975 17.5018107 9.05761753 17.51371263 7.03221571 17.5261271 C5.22578945 17.51624233 5.22578945 17.51624233 3.38286972 17.50615788 C1.82661076 17.50705351 1.82661076 17.50705351 0.23891222 17.50796723 C-3.29870322 17.05823638 -5.67689418 16.00804218 -8.70100212 14.13422108 C-10.26350212 10.82172108 -10.26350212 10.82172108 -10.70100212 7.13422108 C-8.32956568 0.7313427 -6.52089208 0.0109999 0 0 Z " fill="#000000" transform="translate(163.70100212097168,418.86577892303467)"/>
<path d="M0 0 C1.20044303 -0.00583219 2.40088607 -0.01166439 3.63770616 -0.01767331 C4.95296238 -0.01389399 6.2682186 -0.01011467 7.62333107 -0.00622082 C9.03746608 -0.00924149 10.45159945 -0.01313055 11.86572993 -0.01781338 C15.75168682 -0.02811303 19.63755166 -0.02590657 23.52351618 -0.02163279 C27.71447722 -0.01916912 31.9054159 -0.02817528 36.09636879 -0.03567028 C44.30702531 -0.04842946 52.51764914 -0.05020944 60.72831391 -0.04787002 C67.40147992 -0.04608801 74.074636 -0.04783399 80.74780083 -0.05209446 C81.69705122 -0.05268965 82.64630162 -0.05328484 83.62431718 -0.05389806 C85.55264039 -0.0551098 87.4809636 -0.05632393 89.40928681 -0.05754044 C107.49950919 -0.06842074 125.58971293 -0.06625121 143.67993636 -0.06015559 C160.23245402 -0.05498639 176.78491283 -0.0662411 193.33741884 -0.08525381 C210.32961298 -0.10462208 227.32177926 -0.11288996 244.31398451 -0.10913056 C253.85536614 -0.10721693 263.39669767 -0.10972181 272.9380703 -0.1238451 C281.06102369 -0.13574701 289.18389617 -0.1371772 297.30685066 -0.12505493 C301.45150058 -0.11915778 305.59600241 -0.11808984 309.74064255 -0.13005733 C313.53550496 -0.14088754 317.33009512 -0.13784709 321.12494464 -0.12379565 C323.14660814 -0.11988398 325.16828359 -0.13071919 327.18991888 -0.14209253 C333.52155212 -0.10424666 338.53071897 -0.02030774 344.04755592 3.25447559 C345.61226825 6.38390025 345.7445755 9.86529783 345.04755592 13.25447559 C342.92009528 15.95145109 341.73305899 17.12886941 338.31115437 17.75587225 C337.25162461 17.75652166 336.19209486 17.75717107 335.10045815 17.75784016 C333.87577229 17.76827115 332.65108644 17.77870214 331.3892889 17.78944921 C330.02822385 17.78080076 328.66716116 17.77177412 327.30610085 17.76241016 C325.86181286 17.76701769 324.41752956 17.77336961 322.97325611 17.78131914 C318.99933802 17.79805625 315.02580291 17.78974643 311.05188322 17.77737427 C306.76823835 17.76834391 302.48466049 17.78228346 298.20102882 17.79329395 C289.8073862 17.81110537 281.41388644 17.80722755 273.02023816 17.79564339 C266.2001797 17.78661963 259.38016136 17.78538048 252.56009865 17.78973866 C251.10557927 17.79065805 251.10557927 17.79065805 249.62167567 17.79159603 C247.65195472 17.79287489 245.68223378 17.79417174 243.71251285 17.79548639 C225.23083174 17.80689987 206.74922991 17.79376645 188.26756179 17.77228492 C172.40024147 17.75441325 156.53303819 17.75751714 140.66571999 17.77595997 C122.25138133 17.79735313 103.83711222 17.80580116 85.42276287 17.79351091 C83.46017966 17.79223668 81.49759643 17.7909792 79.5350132 17.78973866 C78.5693174 17.78912155 77.60362161 17.78850445 76.60866231 17.78786865 C69.7946873 17.78441108 62.9807563 17.79025284 56.1667881 17.79965687 C47.86582972 17.81086098 39.56502269 17.80787033 31.26408172 17.78653389 C27.02661605 17.77600201 22.78940296 17.77193783 18.55193901 17.7851305 C14.67569278 17.7970163 10.79993415 17.79055557 6.9237324 17.76922029 C5.51868061 17.76473794 4.11358794 17.76705701 2.70856225 17.77672344 C0.80395412 17.78882567 -1.10076879 17.77406197 -3.0053463 17.75784016 C-4.06487605 17.75719075 -5.1244058 17.75654134 -6.21604252 17.75587225 C-9.6463131 17.1273365 -10.80691613 15.94700829 -12.95244408 13.25447559 C-14.28618294 9.87567048 -14.0478872 8.52489777 -12.82744408 5.06697559 C-9.60074454 0.22692628 -5.53853501 0.0046327 0 0 Z " fill="#000000" transform="translate(166.9524440765381,75.7455244064331)"/>
<path d="M0 0 C0.92113173 -0.00583219 1.84226347 -0.01166439 2.79130828 -0.01767331 C3.80996447 -0.01389399 4.82862066 -0.01011467 5.87814522 -0.00622082 C7.49356183 -0.01195914 7.49356183 -0.01195914 9.14161313 -0.01781338 C12.77447111 -0.02818734 16.40717233 -0.02414289 20.04004097 -0.02018261 C22.63479955 -0.02452667 25.22955684 -0.02970879 27.82431221 -0.03567028 C34.15541984 -0.04844414 40.48648511 -0.0502076 46.81760345 -0.04787002 C51.96245443 -0.04608951 57.10729252 -0.04783074 62.25214195 -0.05209446 C62.98341145 -0.05268965 63.71468094 -0.05328484 64.46811012 -0.05389806 C65.95353213 -0.05510977 67.43895414 -0.05632391 68.92437615 -0.05754044 C82.86695765 -0.06842655 96.80951499 -0.06624856 110.75209786 -0.06015559 C123.51422215 -0.05498676 136.27627011 -0.06623907 149.0383793 -0.08525381 C162.13305287 -0.1046149 175.22769029 -0.11289118 188.32237828 -0.10913056 C195.67780386 -0.10721572 203.03316448 -0.10973343 210.38857841 -0.1238451 C217.30452654 -0.13697894 224.22031914 -0.13452235 231.13626671 -0.12143421 C233.67920418 -0.11905891 236.22215229 -0.12183698 238.76507759 -0.13005733 C242.22758906 -0.14044588 245.68957885 -0.13248744 249.152071 -0.11974621 C250.67336312 -0.13080764 250.67336312 -0.13080764 252.22538841 -0.14209253 C253.61490925 -0.13128271 253.61490925 -0.13128271 255.03250122 -0.12025452 C255.83186753 -0.12030953 256.63123384 -0.12036455 257.45482337 -0.12042123 C260.20462647 0.35089379 261.59160196 1.39693249 263.64209175 3.25447559 C264.70630185 5.90391533 264.88544153 8.41723838 264.64209175 11.25447559 C262.56811607 14.73579192 261.49750329 15.96933841 257.64209175 17.25447559 C256.17243362 17.3467103 254.6989462 17.38356799 253.22639847 17.38590336 C252.31782597 17.3897445 251.40925347 17.39358565 250.47314847 17.39754319 C248.97390231 17.39624347 248.97390231 17.39624347 247.44436836 17.39491749 C246.3836093 17.39788861 245.32285024 17.40085973 244.22994697 17.40392089 C240.65784802 17.41262697 237.08578251 17.41411774 233.51367378 17.41560841 C230.95979935 17.42023518 228.40592561 17.42525964 225.85205269 17.43065357 C218.90170279 17.44379194 211.95136395 17.45026168 205.00100374 17.45466423 C200.6622782 17.45742612 196.32355489 17.46166334 191.98483086 17.4661684 C179.9750177 17.47836068 167.96520633 17.48866045 155.95538712 17.4920435 C154.80231349 17.49237284 154.80231349 17.49237284 153.62594544 17.49270885 C152.85538056 17.49292712 152.08481568 17.4931454 151.29090035 17.49337029 C149.72941597 17.49381376 148.1679316 17.49426033 146.60644722 17.49470997 C145.44461954 17.49504211 145.44461954 17.49504211 144.2593206 17.49538097 C131.70486797 17.49933017 119.15047334 17.5167881 106.59604312 17.54006949 C93.71039028 17.56377252 80.82476656 17.57624485 67.93909156 17.57741141 C60.70269097 17.57832871 53.46636598 17.58409468 46.22998619 17.60223103 C39.425651 17.61922436 32.62148395 17.62089252 25.81712532 17.61209202 C23.31653014 17.61131889 20.81592739 17.61570042 18.31535149 17.62555027 C14.90798855 17.63818736 11.50114117 17.63243761 8.09378242 17.62196827 C6.60122844 17.63405288 6.60122844 17.63405288 5.07852185 17.64638162 C-3.5298813 17.58430153 -3.5298813 17.58430153 -7.35790825 14.25447559 C-8.85790825 10.87947559 -8.85790825 10.87947559 -9.35790825 7.25447559 C-7.22684501 2.45958332 -5.30598458 0.00575578 0 0 Z " fill="#000000" transform="translate(162.35790824890137,204.7455244064331)"/>
<path d="M0 0 C0.92312278 -0.00782324 1.84624556 -0.01564648 2.79734176 -0.02370679 C4.32095678 -0.01366855 4.32095678 -0.01366855 5.87535191 -0.00342751 C7.49205016 -0.01044746 7.49205016 -0.01044746 9.14140898 -0.01760924 C12.77123547 -0.02962356 16.4006889 -0.02007668 20.03051853 -0.01066017 C22.62542537 -0.01472303 25.22033047 -0.02006329 27.81523228 -0.02659035 C34.14288426 -0.03994944 40.47042965 -0.03704018 46.79808586 -0.02835242 C51.94005661 -0.02158422 57.08199744 -0.02065541 62.22397137 -0.02392387 C62.95510537 -0.02438357 63.68623938 -0.02484327 64.43952896 -0.0253169 C65.92470944 -0.02627606 67.40988992 -0.02724869 68.89507038 -0.02823468 C82.83099515 -0.03679509 96.76686077 -0.02694455 110.70277584 -0.01083358 C122.66491763 0.0025674 134.62697208 0.00024461 146.58911228 -0.01358986 C160.47275642 -0.02963902 174.35634867 -0.0359681 188.24000078 -0.02675307 C189.72010075 -0.0257974 191.20020073 -0.02485429 192.68030071 -0.02392387 C193.77271666 -0.02322963 193.77271666 -0.02322963 194.88720162 -0.02252137 C200.02351235 -0.01992927 205.15979021 -0.02430725 210.29609585 -0.03136253 C217.20796276 -0.0406478 224.11966168 -0.03405085 231.03151226 -0.01667976 C233.57283471 -0.01270288 236.11417102 -0.01386937 238.65548801 -0.02046776 C242.11576592 -0.02862578 245.57550878 -0.01843071 249.0357523 -0.00342751 C250.04926492 -0.01011967 251.06277755 -0.01681184 252.10700268 -0.02370679 C253.49559847 -0.01197193 253.49559847 -0.01197193 254.9122467 0 C256.11048306 0.00073059 256.11048306 0.00073059 257.33292621 0.00147593 C260.0812864 0.47423819 261.46918753 1.52094188 263.51904392 3.37752342 C264.58325402 6.02696316 264.7623937 8.54028621 264.51904392 11.37752342 C262.44506824 14.85883975 261.37445546 16.09238624 257.51904392 17.37752342 C256.04938579 17.46975812 254.57589837 17.50661582 253.10335064 17.50895119 C252.19477814 17.51279233 251.28620564 17.51663348 250.35010064 17.52059102 C248.85085449 17.5192913 248.85085449 17.5192913 247.32132053 17.51796532 C246.26056147 17.52093644 245.19980242 17.52390756 244.10689914 17.52696872 C240.53480019 17.53567479 236.96273469 17.53716557 233.39062595 17.53865623 C230.83675152 17.54328301 228.28287779 17.54830747 225.72900486 17.5537014 C218.77865496 17.56683977 211.82831612 17.5733095 204.87795591 17.57771206 C200.53923037 17.58047395 196.20050706 17.58471117 191.86178303 17.58921623 C179.85196987 17.60140851 167.8421585 17.61170828 155.83233929 17.61509132 C154.67926566 17.61542067 154.67926566 17.61542067 153.50289761 17.61575668 C152.73233273 17.61597495 151.96176785 17.61619323 151.16785252 17.61641812 C149.60636814 17.61686159 148.04488377 17.61730815 146.48339939 17.6177578 C145.32157172 17.61808994 145.32157172 17.61808994 144.13627277 17.6184288 C131.58182014 17.622378 119.02742551 17.63983593 106.4729953 17.66311732 C93.58734246 17.68682035 80.70171873 17.69929268 67.81604373 17.70045924 C60.57964315 17.70137653 53.34331815 17.70714251 46.10693836 17.72527885 C39.30260317 17.74227219 32.49843612 17.74394035 25.69407749 17.73513985 C23.19348231 17.73436672 20.69287956 17.73874825 18.19230366 17.7485981 C14.78494072 17.76123519 11.37809334 17.75548544 7.9707346 17.7450161 C6.47818061 17.7571007 6.47818061 17.7571007 4.95547402 17.76942945 C-3.58802668 17.70781741 -3.58802668 17.70781741 -7.48095608 14.37752342 C-9.13912405 11.06118747 -9.71856827 9.30637108 -8.79345608 5.69002342 C-6.44858057 1.5585761 -4.83715088 0.00294989 0 0 Z " fill="#000000" transform="translate(162.48095607757568,375.6224765777588)"/>
<path d="M0 0 C0.92113173 -0.00583219 1.84226347 -0.01166439 2.79130828 -0.01767331 C3.80996447 -0.01389399 4.82862066 -0.01011467 5.87814522 -0.00622082 C7.49356183 -0.01195914 7.49356183 -0.01195914 9.14161313 -0.01781338 C12.77447111 -0.02818734 16.40717233 -0.02414289 20.04004097 -0.02018261 C22.63479955 -0.02452667 25.22955684 -0.02970879 27.82431221 -0.03567028 C34.15541984 -0.04844414 40.48648511 -0.0502076 46.81760345 -0.04787002 C51.96245443 -0.04608951 57.10729252 -0.04783074 62.25214195 -0.05209446 C62.98341145 -0.05268965 63.71468094 -0.05328484 64.46811012 -0.05389806 C65.95353213 -0.05510977 67.43895414 -0.05632391 68.92437615 -0.05754044 C82.86695765 -0.06842655 96.80951499 -0.06624856 110.75209786 -0.06015559 C123.51422215 -0.05498676 136.27627011 -0.06623907 149.0383793 -0.08525381 C162.13305287 -0.1046149 175.22769029 -0.11289118 188.32237828 -0.10913056 C195.67780386 -0.10721572 203.03316448 -0.10973343 210.38857841 -0.1238451 C217.30452654 -0.13697894 224.22031914 -0.13452235 231.13626671 -0.12143421 C233.67920418 -0.11905891 236.22215229 -0.12183698 238.76507759 -0.13005733 C242.22758906 -0.14044588 245.68957885 -0.13248744 249.152071 -0.11974621 C250.67336312 -0.13080764 250.67336312 -0.13080764 252.22538841 -0.14209253 C253.61490925 -0.13128271 253.61490925 -0.13128271 255.03250122 -0.12025452 C255.83186753 -0.12030953 256.63123384 -0.12036455 257.45482337 -0.12042123 C260.20462647 0.35089379 261.59160196 1.39693249 263.64209175 3.25447559 C264.70630185 5.90391533 264.88544153 8.41723838 264.64209175 11.25447559 C262.56811607 14.73579192 261.49750329 15.96933841 257.64209175 17.25447559 C256.17243362 17.3467103 254.6989462 17.38356799 253.22639847 17.38590336 C252.31782597 17.3897445 251.40925347 17.39358565 250.47314847 17.39754319 C248.97390231 17.39624347 248.97390231 17.39624347 247.44436836 17.39491749 C246.3836093 17.39788861 245.32285024 17.40085973 244.22994697 17.40392089 C240.65784802 17.41262697 237.08578251 17.41411774 233.51367378 17.41560841 C230.95979935 17.42023518 228.40592561 17.42525964 225.85205269 17.43065357 C218.90170279 17.44379194 211.95136395 17.45026168 205.00100374 17.45466423 C200.6622782 17.45742612 196.32355489 17.46166334 191.98483086 17.4661684 C179.9750177 17.47836068 167.96520633 17.48866045 155.95538712 17.4920435 C154.80231349 17.49237284 154.80231349 17.49237284 153.62594544 17.49270885 C152.85538056 17.49292712 152.08481568 17.4931454 151.29090035 17.49337029 C149.72941597 17.49381376 148.1679316 17.49426033 146.60644722 17.49470997 C145.44461954 17.49504211 145.44461954 17.49504211 144.2593206 17.49538097 C131.70486797 17.49933017 119.15047334 17.5167881 106.59604312 17.54006949 C93.71039028 17.56377252 80.82476656 17.57624485 67.93909156 17.57741141 C60.70269097 17.57832871 53.46636598 17.58409468 46.22998619 17.60223103 C39.425651 17.61922436 32.62148395 17.62089252 25.81712532 17.61209202 C23.31653014 17.61131889 20.81592739 17.61570042 18.31535149 17.62555027 C14.90798855 17.63818736 11.50114117 17.63243761 8.09378242 17.62196827 C6.60122844 17.63405288 6.60122844 17.63405288 5.07852185 17.64638162 C-3.5298813 17.58430153 -3.5298813 17.58430153 -7.35790825 14.25447559 C-8.85790825 10.87947559 -8.85790825 10.87947559 -9.35790825 7.25447559 C-7.22684501 2.45958332 -5.30598458 0.00575578 0 0 Z " fill="#000000" transform="translate(162.35790824890137,33.745524406433105)"/>
<path d="M0 0 C1.97677483 -0.01062721 1.97677483 -0.01062721 3.9934845 -0.02146912 C5.45233189 -0.01917532 6.91117895 -0.01666563 8.37002563 -0.01396179 C9.90766142 -0.01830941 11.44529503 -0.02349273 12.98292542 -0.02944946 C17.15860247 -0.04284637 21.33418905 -0.0434173 25.5098834 -0.04088616 C28.99644151 -0.03981678 32.48298129 -0.04469907 35.96953547 -0.04949158 C44.19598232 -0.06058947 52.42238351 -0.0610228 60.64883423 -0.05497742 C69.13306712 -0.0489384 77.61713415 -0.06124614 86.10133874 -0.08254749 C93.38723857 -0.10016707 100.67308561 -0.10616423 107.95900595 -0.10290974 C112.30976662 -0.10109708 116.660409 -0.10373121 121.01115036 -0.11762428 C125.10369779 -0.13020359 129.19598687 -0.12825764 133.28853035 -0.11521339 C134.78891779 -0.11284816 136.28932342 -0.11558043 137.78969002 -0.12383652 C139.8414561 -0.13431091 141.89235646 -0.12619892 143.9440918 -0.11352539 C145.66466073 -0.113777 145.66466073 -0.113777 147.41998863 -0.1140337 C151.05731788 0.31471724 153.47756527 1.37169338 156.59902954 3.26069641 C158.16374187 6.39012106 158.29604912 9.87151864 157.59902954 13.26069641 C155.38872563 16.13361084 154.20750545 17.15897541 150.58799744 17.76406097 C149.40223618 17.76556908 148.21647491 17.76707718 146.99478149 17.76863098 C146.00158512 17.77799093 146.00158512 17.77799093 144.98832417 17.78753996 C142.77095682 17.8034874 140.55468616 17.79086014 138.33731079 17.77827454 C136.74716551 17.78369493 135.15702526 17.79081712 133.56689453 17.79951477 C129.24869364 17.81776112 124.93087471 17.8106753 120.61266708 17.79799843 C116.09549676 17.78787751 111.57835934 17.79726158 107.06118774 17.80354309 C99.47510908 17.81082215 91.88918613 17.80122504 84.3031311 17.78218079 C75.53023328 17.76041151 66.75770727 17.7674627 57.98481846 17.78948641 C50.45519355 17.80763307 42.92568063 17.81020234 35.39604092 17.79973173 C30.89777468 17.79349274 26.39968326 17.79267225 21.90142822 17.80587769 C17.67254845 17.81742494 13.44414847 17.80943138 9.21532059 17.78630066 C7.66250023 17.7810075 6.10963955 17.78253775 4.55683517 17.79135132 C2.43843594 17.8022674 0.32157831 17.78859398 -1.79672241 17.76863098 C-2.98248367 17.76712288 -4.16824493 17.76561478 -5.38993835 17.76406097 C-9.0203143 17.15715858 -10.17065061 16.12909977 -12.40097046 13.26069641 C-13.74647082 9.85209551 -13.50613224 8.54297276 -12.21347046 5.07319641 C-9.00434014 0.09351143 -5.69793715 0.01020431 0 0 Z " fill="#000000" transform="translate(166.40097045898438,289.7393035888672)"/>
<path d="M0 0 C0.96763671 -0.00573832 0.96763671 -0.00573832 1.95482165 -0.01159257 C4.11429711 -0.0219033 6.27350573 -0.01793418 8.43299866 -0.01396179 C9.98210903 -0.01830934 11.53121725 -0.02349263 13.08032227 -0.02944946 C17.28692274 -0.04284604 21.49343341 -0.04341741 25.70005107 -0.04088616 C29.21155667 -0.03981692 32.72304406 -0.04469862 36.23454577 -0.04949158 C44.518484 -0.060589 52.8023769 -0.06102283 61.08631897 -0.05497742 C69.63305535 -0.04893615 78.17962716 -0.06125195 86.72633547 -0.08254749 C94.06402383 -0.10015847 101.40165978 -0.10616565 108.7393685 -0.10290974 C113.12195501 -0.10109597 117.50442412 -0.10374244 121.8869915 -0.11762428 C126.00826243 -0.13018988 130.12927665 -0.12827065 134.25054359 -0.11521339 C135.76263897 -0.1128453 137.27475234 -0.11559065 138.78682709 -0.12383652 C140.85207963 -0.13428651 142.91646798 -0.12621852 144.98168945 -0.11352539 C146.13703155 -0.11369313 147.29237364 -0.11386087 148.4827261 -0.1140337 C151.91276458 0.30442389 153.79868655 1.2095461 156.55433655 3.26069641 C158.11904887 6.39012106 158.25135613 9.87151864 157.55433655 13.26069641 C155.34403264 16.13361084 154.16281245 17.15897541 150.54330444 17.76406097 C149.35754318 17.76556908 148.17178192 17.76707718 146.9500885 17.76863098 C145.95689212 17.77799093 145.95689212 17.77799093 144.94363117 17.78753996 C142.72626383 17.8034874 140.50999317 17.79086014 138.2926178 17.77827454 C136.70247252 17.78369493 135.11233227 17.79081712 133.52220154 17.79951477 C129.20400065 17.81776112 124.88618172 17.8106753 120.56797409 17.79799843 C116.05080377 17.78787751 111.53366634 17.79726158 107.01649475 17.80354309 C99.43041608 17.81082215 91.84449314 17.80122504 84.25843811 17.78218079 C75.48554028 17.76041151 66.71301428 17.7674627 57.94012547 17.78948641 C50.41050055 17.80763307 42.88098764 17.81020234 35.35134792 17.79973173 C30.85308168 17.79349274 26.35499027 17.79267225 21.85673523 17.80587769 C17.62785546 17.81742494 13.39945548 17.80943138 9.17062759 17.78630066 C7.61780723 17.7810075 6.06494655 17.78253775 4.51214218 17.79135132 C2.39374295 17.8022674 0.27688531 17.78859398 -1.84141541 17.76863098 C-3.02717667 17.76712288 -4.21293793 17.76561478 -5.43463135 17.76406097 C-9.06500729 17.15715858 -10.2153436 16.12909977 -12.44566345 13.26069641 C-13.79116381 9.85209551 -13.55082523 8.54297276 -12.25816345 5.07319641 C-9.03884441 0.07770135 -5.71495394 0.01015793 0 0 Z " fill="#000000" transform="translate(166.44566345214844,118.73930358886719)"/>
<path d="M0 0 C1.97677483 -0.01062721 1.97677483 -0.01062721 3.9934845 -0.02146912 C5.45233189 -0.01917532 6.91117895 -0.01666563 8.37002563 -0.01396179 C9.90766142 -0.01830941 11.44529503 -0.02349273 12.98292542 -0.02944946 C17.15860247 -0.04284637 21.33418905 -0.0434173 25.5098834 -0.04088616 C28.99644151 -0.03981678 32.48298129 -0.04469907 35.96953547 -0.04949158 C44.19598232 -0.06058947 52.42238351 -0.0610228 60.64883423 -0.05497742 C69.13306712 -0.0489384 77.61713415 -0.06124614 86.10133874 -0.08254749 C93.38723857 -0.10016707 100.67308561 -0.10616423 107.95900595 -0.10290974 C112.30976662 -0.10109708 116.660409 -0.10373121 121.01115036 -0.11762428 C125.10369779 -0.13020359 129.19598687 -0.12825764 133.28853035 -0.11521339 C134.78891779 -0.11284816 136.28932342 -0.11558043 137.78969002 -0.12383652 C139.8414561 -0.13431091 141.89235646 -0.12619892 143.9440918 -0.11352539 C145.66466073 -0.113777 145.66466073 -0.113777 147.41998863 -0.1140337 C151.05731788 0.31471724 153.47756527 1.37169338 156.59902954 3.26069641 C158.16374187 6.39012106 158.29604912 9.87151864 157.59902954 13.26069641 C155.38872563 16.13361084 154.20750545 17.15897541 150.58799744 17.76406097 C149.40223618 17.76556908 148.21647491 17.76707718 146.99478149 17.76863098 C146.00158512 17.77799093 146.00158512 17.77799093 144.98832417 17.78753996 C142.77095682 17.8034874 140.55468616 17.79086014 138.33731079 17.77827454 C136.74716551 17.78369493 135.15702526 17.79081712 133.56689453 17.79951477 C129.24869364 17.81776112 124.93087471 17.8106753 120.61266708 17.79799843 C116.09549676 17.78787751 111.57835934 17.79726158 107.06118774 17.80354309 C99.47510908 17.81082215 91.88918613 17.80122504 84.3031311 17.78218079 C75.53023328 17.76041151 66.75770727 17.7674627 57.98481846 17.78948641 C50.45519355 17.80763307 42.92568063 17.81020234 35.39604092 17.79973173 C30.89777468 17.79349274 26.39968326 17.79267225 21.90142822 17.80587769 C17.67254845 17.81742494 13.44414847 17.80943138 9.21532059 17.78630066 C7.66250023 17.7810075 6.10963955 17.78253775 4.55683517 17.79135132 C2.43843594 17.8022674 0.32157831 17.78859398 -1.79672241 17.76863098 C-2.98248367 17.76712288 -4.16824493 17.76561478 -5.38993835 17.76406097 C-9.0203143 17.15715858 -10.17065061 16.12909977 -12.40097046 13.26069641 C-13.74647082 9.85209551 -13.50613224 8.54297276 -12.21347046 5.07319641 C-9.00434014 0.09351143 -5.69793715 0.01020431 0 0 Z " fill="#000000" transform="translate(166.40097045898438,460.7393035888672)"/>
</svg>
