<?xml version="1.0" encoding="UTF-8"?>
<svg version="1.1" xmlns="http://www.w3.org/2000/svg" width="512" height="512">
<path d="M0 0 C0.99456207 0.00215515 1.98912415 0.0043103 3.01382446 0.00653076 C17.49665106 0.05689771 31.63989867 0.41615797 45.875 3.3125 C46.87305664 3.50585938 47.87111328 3.69921875 48.89941406 3.8984375 C88.46315854 11.71707319 127.22306128 27.95598045 158.31591797 54.01367188 C159.81874081 55.26563203 161.34843616 56.4851176 162.87890625 57.703125 C177.92791073 69.92683745 192.28889781 83.92266119 203.66552734 99.65869141 C204.92886046 101.38614771 206.23455472 103.07428517 207.55078125 104.76171875 C215.42529174 114.97805476 221.81267986 125.94332125 227.875 137.3125 C228.53846436 138.55314209 228.53846436 138.55314209 229.21533203 139.81884766 C240.73204842 161.72199262 248.4030584 186.01309889 252.875 210.3125 C253.03581055 211.11316895 253.19662109 211.91383789 253.36230469 212.73876953 C258.8544441 240.81662453 258.60896692 274.30227935 252.875 302.3125 C252.68164062 303.30910645 252.48828125 304.30571289 252.2890625 305.33251953 C244.17028127 346.42132055 226.80084885 383.51549494 200.875 416.3125 C200.06289063 417.35019531 199.25078125 418.38789063 198.4140625 419.45703125 C185.74907313 435.01858759 171.19874403 449.61464417 154.875 461.3125 C153.52974408 462.30180622 152.18470229 463.29140366 150.83984375 464.28125 C119.53865227 487.07723181 83.97260691 502.31320592 45.875 509.3125 C45.06901367 509.47331055 44.26302734 509.63412109 43.43261719 509.79980469 C15.47889422 515.22499702 -17.22484329 514.79347109 -45.125 509.3125 C-46.02057617 509.15152832 -46.91615234 508.99055664 -47.83886719 508.82470703 C-83.13624024 502.43879022 -117.92197845 488.27984928 -147.125 467.3125 C-148.09308594 466.61769531 -149.06117188 465.92289062 -150.05859375 465.20703125 C-165.8060452 453.63705717 -181.79908638 440.5447343 -194.125 425.3125 C-195.10724952 424.14123607 -196.09042062 422.97074473 -197.07421875 421.80078125 C-234.73173826 376.66627752 -234.73173826 376.66627752 -234.3984375 354.03515625 C-233.65252691 346.60801793 -230.48542534 340.68218913 -224.96875 335.71484375 C-219.36551164 331.45305864 -213.03691635 330.16785601 -206.125 330.3125 C-198.55012345 331.38971391 -193.13236035 334.57421777 -188.125 340.3125 C-185.84637105 343.50375812 -183.98518231 346.86369484 -182.125 350.3125 C-161.68024675 388.18260457 -132.53793346 418.42008803 -94.125 438.3125 C-93.15240234 438.82224365 -93.15240234 438.82224365 -92.16015625 439.34228516 C-44.50163578 464.0091085 12.22558575 467.33966125 63.08203125 451.29296875 C72.27813981 448.23477448 81.12842867 444.47355921 89.875 440.3125 C90.62861816 439.95430176 91.38223633 439.59610352 92.15869141 439.22705078 C110.75240445 430.2287644 126.95904652 417.67399189 142.125 403.75 C142.975177 402.97281616 142.975177 402.97281616 143.8425293 402.17993164 C156.93621914 389.98042637 168.11577392 374.87280183 176.875 359.3125 C177.45628662 358.28914551 177.45628662 358.28914551 178.04931641 357.24511719 C188.91356882 337.95820791 196.04659646 317.88955067 200.875 296.3125 C201.05434082 295.5484082 201.23368164 294.78431641 201.41845703 293.99707031 C210.9737831 251.69553742 202.20769605 204.84793663 183.875 166.3125 C183.51680176 165.55888184 183.15860352 164.80526367 182.78955078 164.02880859 C165.7805128 128.88198641 136.81808027 98.46732733 102.875 79.3125 C102.19131348 78.92352539 101.50762695 78.53455078 100.80322266 78.13378906 C53.94804378 51.74491936 -1.30445587 44.57747205 -53.33642578 58.33007812 C-108.13579402 73.76072434 -151.96229247 109.25670394 -180.125 158.3125 C-182.00566976 161.71581634 -183.82014864 165.15083429 -185.58984375 168.61328125 C-188.22192743 173.24119429 -190.83634605 176.53970032 -195.5625 179.0625 C-196.67431641 179.67351562 -196.67431641 179.67351562 -197.80859375 180.296875 C-204.71113589 183.32328471 -211.87161788 182.9550476 -218.8515625 180.41796875 C-225.58328874 177.14463795 -229.98100451 171.97777045 -233.125 165.3125 C-236.33011745 154.67930629 -232.5945897 145.93735758 -227.71484375 136.5234375 C-226.83946182 134.90669945 -225.95506205 133.29481715 -225.0625 131.6875 C-224.34622437 130.39380493 -224.34622437 130.39380493 -223.61547852 129.07397461 C-218.9509049 120.78623833 -213.74108533 112.98021797 -208.125 105.3125 C-207.70895508 104.73951172 -207.29291016 104.16652344 -206.86425781 103.57617188 C-200.54171718 94.92216304 -193.56426229 87.01796612 -186.125 79.3125 C-185.4757959 78.63606445 -184.8265918 77.95962891 -184.15771484 77.26269531 C-175.02829191 67.7930853 -165.74860596 59.07237789 -155.125 51.3125 C-153.97394983 50.45443848 -152.82290823 49.59636549 -151.671875 48.73828125 C-143.48224019 42.70072604 -134.97961724 37.31792698 -126.125 32.3125 C-125.41778809 31.9103125 -124.71057617 31.508125 -123.98193359 31.09375 C-97.83310864 16.37173727 -68.81392291 6.67631153 -39.125 2.3125 C-37.32675781 2.04651001 -37.32675781 2.04651001 -35.4921875 1.77514648 C-23.66616514 0.14661378 -11.92341448 -0.04652287 0 0 Z " fill="#000000" transform="translate(256.125,-0.3125)"/>
<path d="M0 0 C9.43896099 4.83506353 16.72347733 13.42648873 24.12193298 20.83380127 C25.48356824 22.19154228 26.84542415 23.54906204 28.20748901 24.90637207 C31.05257797 27.74402722 33.89379785 30.5854893 36.73252869 33.42950439 C40.35060492 37.05337085 43.97991328 40.66574907 47.61246586 44.27509689 C50.425762 47.07358146 53.23201573 49.87904781 56.03635979 52.68650055 C57.37070894 54.0203402 58.70738872 55.35185295 60.04654121 56.68087006 C72.01843482 68.57322493 83.97374826 81.17794223 85.02427673 99.03692627 C85.10677673 100.21255127 85.18927673 101.38817627 85.27427673 102.59942627 C84.81024841 126.54328753 68.70990897 140.50845537 53.04771423 156.21661377 C52.06372084 157.20484823 52.06372084 157.20484823 51.05984879 158.21304703 C47.59852073 161.68924637 44.13442189 165.16265471 40.66783142 168.63360596 C37.10264973 172.20430224 33.54686729 175.78420988 29.99312401 179.36628532 C27.24086819 182.13719028 24.48190242 184.90133978 21.72107315 187.6637001 C20.40693666 188.98085069 19.09528649 190.30048702 17.78625107 191.62270737 C15.95645949 193.46963192 14.1173488 195.30677366 12.27574158 197.14190674 C11.74465286 197.68221024 11.21356415 198.22251373 10.66638184 198.77919006 C4.57910924 204.79997451 -1.57422719 208.13861491 -10.22572327 208.28692627 C-17.91051176 208.18473493 -23.70293501 206.17130086 -29.36634827 200.88458252 C-34.86648254 194.57010797 -36.74964241 188.14979481 -36.31556702 179.84942627 C-34.48540876 164.70328899 -18.68262396 153.61701428 -8.41322327 143.41192627 C-7.00869185 142.01242204 -5.60439321 140.61268414 -4.20033264 139.21270752 C-0.79480448 135.81808342 2.61384855 132.42662721 6.02427673 129.03692627 C5.27405243 129.03545971 4.52382813 129.03399315 3.75086975 129.03248215 C-14.51969605 128.99539997 -32.79007088 128.93636655 -51.06048584 128.85302353 C-59.8960042 128.81324619 -68.73143367 128.78084708 -77.56703186 128.76593018 C-85.26984685 128.75290688 -92.97246613 128.72592496 -100.6751709 128.6823132 C-104.752199 128.65971354 -108.82898586 128.64401468 -112.90608215 128.64504242 C-116.74756163 128.64578993 -120.58850811 128.62780337 -124.42984962 128.59575844 C-125.83583964 128.58727491 -127.24188955 128.58549901 -128.64789391 128.59112358 C-137.65792349 128.62235227 -144.12976186 128.19673384 -151.18275452 122.14239502 C-157.03567991 115.15021408 -159.65933411 109.34478775 -159.38197327 100.09942627 C-158.31664383 92.06848129 -154.16746491 86.56416349 -148.13587952 81.41192627 C-143.55820512 78.49810821 -139.06098472 77.78607564 -133.71147156 77.75845337 C-132.47475708 77.74728989 -131.2380426 77.7361264 -129.96385193 77.72462463 C-128.60664398 77.72226009 -127.2494357 77.72008436 -125.89222717 77.71807861 C-124.45293112 77.7087734 -123.01364043 77.69860384 -121.57435608 77.68763733 C-117.67815278 77.66039007 -113.78198554 77.64520362 -109.88571215 77.6322093 C-105.80974739 77.61655563 -101.733856 77.58977255 -97.65794373 77.56417847 C-89.94457351 77.51743024 -82.23118943 77.480667 -74.51775014 77.44750559 C-65.73417772 77.40925623 -56.95067906 77.35985345 -48.16716886 77.30952144 C-30.10340767 77.20626043 -12.03960145 77.11698109 6.02427673 77.03692627 C5.57184097 76.59559357 5.11940521 76.15426086 4.65325928 75.69955444 C-0.08293995 71.0745737 -4.80096642 66.43161003 -9.50917053 61.77813721 C-11.26505398 60.04728936 -13.0254129 58.32096889 -14.79042053 56.59942627 C-17.33696003 54.11401523 -19.86658444 51.61238726 -22.39369202 49.10723877 C-23.56897713 47.9706633 -23.56897713 47.9706633 -24.76800537 46.81112671 C-30.53604812 41.0460261 -35.10691041 34.89541923 -36.56947327 26.71661377 C-36.27096121 17.78612805 -34.85604077 11.28868644 -28.72572327 4.57598877 C-20.90186825 -2.3048123 -9.54642902 -4.32296472 0 0 Z " fill="#000000" transform="translate(297.97572326660156,152.96307373046875)"/>
</svg>
