<?xml version="1.0" encoding="iso-8859-1"?>
<!-- Uploaded to: SVG Repo, www.svgrepo.com, Generator: SVG Repo Mixer Tools -->
<svg height="800px" width="800px" version="1.1" id="Layer_1" xmlns="http://www.w3.org/2000/svg" xmlns:xlink="http://www.w3.org/1999/xlink" 
	 viewBox="0 0 408.759 408.759" xml:space="preserve">
<g>
	<path style="fill:#FFBE00;" d="M204.385,408.759c-58.121,0-113.675-24.869-152.418-68.227
		C18.46,303.057,0.005,254.703,0.005,204.378C0.005,91.685,91.689,0,204.385,0c50.317,0,98.674,18.455,136.163,51.964
		c43.348,38.762,68.207,94.314,68.207,152.415C408.755,317.074,317.075,408.759,204.385,408.759"/>
	<path style="fill:#F4502A;" d="M377.759,204.377c0,18.08-2.77,35.52-7.911,51.899c-20.391,65.09-78.11,113.66-148.079,120.611
		c-5.721,0.58-11.51,0.87-17.38,0.87c-12.91,0-25.48-1.411-37.581-4.09c-36.09-7.97-67.95-27.19-91.72-53.791
		c-0.26-0.29-0.519-0.589-0.79-0.879c-26.95-30.56-43.289-70.679-43.289-114.62c0-95.751,77.619-173.38,173.38-173.38
		c43.95,0,84.069,16.348,114.629,43.289c0.29,0.27,0.591,0.53,0.881,0.791c32.12,28.73,53.469,69.221,57.26,114.72
		C377.558,194.606,377.759,199.467,377.759,204.377"/>
	<path style="fill:#C29100;" d="M74.309,319.009c4.663,5.286,9.642,10.284,14.911,14.966c-4.975-4.425-9.695-9.135-14.132-14.1
		C74.831,319.59,74.576,319.295,74.309,319.009 M72.824,317.304c0.008,0.009,0.016,0.019,0.024,0.028
		C72.84,317.322,72.832,317.313,72.824,317.304 M72.507,316.934c0.049,0.057,0.097,0.114,0.146,0.171
		C72.605,317.048,72.556,316.99,72.507,316.934 M72.162,316.528c0.062,0.073,0.124,0.146,0.187,0.219
		C72.285,316.673,72.224,316.602,72.162,316.528 M71.815,316.118c0.093,0.11,0.186,0.22,0.279,0.33
		C72.001,316.338,71.908,316.228,71.815,316.118 M159.497,36.865C85.499,56.642,31.004,124.142,31.004,204.369
		c0,42.567,15.335,81.551,40.788,111.722c-25.454-30.176-40.783-69.153-40.783-111.714C31.009,124.148,85.498,56.643,159.497,36.865
		"/>
	<path style="fill:#BA3D20;" d="M204.383,30.999c-15.523,0-30.57,2.04-44.886,5.866C85.498,56.643,31.009,124.148,31.009,204.377
		c0,42.562,15.329,81.538,40.783,111.714c0.008,0.009,0.015,0.018,0.022,0.027c0.093,0.11,0.186,0.22,0.279,0.33
		c0.023,0.027,0.044,0.052,0.068,0.08c0.063,0.074,0.124,0.146,0.187,0.219c0.053,0.062,0.106,0.125,0.159,0.187
		c0.048,0.057,0.098,0.114,0.146,0.171c0.057,0.066,0.114,0.133,0.171,0.199c0.008,0.009,0.016,0.019,0.024,0.028
		c0.484,0.563,0.97,1.121,1.461,1.677c0.267,0.286,0.522,0.581,0.779,0.867c4.437,4.965,9.157,9.674,14.132,14.1
		c1.069,0.95,2.153,1.89,3.245,2.814c-25.531-30.2-40.921-69.239-40.921-111.88c0-54.729,25.365-103.54,64.977-135.313V85.38h5.477
		c28.786-21.268,64.387-33.839,102.927-33.839c42.629,0,81.68,15.39,111.869,40.921C305.004,54.871,257.484,30.999,204.383,30.999"
		/>
	<path style="fill:#BA3D20;" d="M155.518,284.376h-17v17h17V284.376 M177.52,85.378h-55.522c-1.855,1.371-3.679,2.775-5.477,4.217
		v56.784l27.496,27.496h0.002h33.5v33.5v27.5h-61l0.002,0.004l27.498,27.498h33.5v19.499h74.489h18.232v-155h-37.221v14.001v12.21
		l-7.911-7.9l-29.4-29.31l6.16-6.142l0.005-0.004L177.52,85.378"/>
	<path style="fill:#8E2E18;" d="M121.998,85.378h-5.477v4.217C118.319,88.154,120.143,86.749,121.998,85.378"/>
	<polyline style="fill:#BA3D20;" points="155.518,195.877 138.518,195.877 138.518,212.877 155.518,212.877 155.518,195.877 	"/>
	<path style="fill:#BA3D20;" d="M116.519,323.377L116.519,323.377l0.002,0.002v-0.002 M292.238,104.877v95.23v88.488v15.281h-114.72
		v19.5h-60.993l-0.005,0.002l50.287,50.287c12.101,2.679,24.671,4.09,37.581,4.09c5.87,0,11.66-0.29,17.38-0.87
		c69.969-6.951,127.688-55.521,148.079-120.611c5.141-16.379,7.911-33.819,7.911-51.899c0-4.91-0.201-9.771-0.6-14.581l0,0
		L292.238,104.877"/>
	<polyline style="fill:#8E2E18;" points="116.526,323.377 116.519,323.377 116.521,323.379 116.526,323.377 	"/>
	<path style="fill:#1CA4BA;" d="M116.518,85.376v61h61v-61C177.518,85.376,116.518,85.376,116.518,85.376z M155.518,124.376h-17v-17
		h17V124.376z"/>
	<path style="fill:#1CA4BA;" d="M116.519,173.876v61h61v-61H116.519 M155.518,212.877h-17v-17h17V212.877"/>
	<path style="fill:#1CA4BA;" d="M116.519,262.377v61h61v-61H116.519 M155.518,301.376h-17v-17h17V301.376"/>
	<polyline style="fill:#BA3D20;" points="233.019,78.666 233.019,104.877 259.228,104.877 233.019,78.666 	"/>
	<polyline style="fill:#157D8E;" points="177.519,173.876 144.019,173.876 177.519,207.375 177.519,173.876 	"/>
	<polyline style="fill:#C2C2C2;" points="201.868,109.735 201.868,109.735 195.708,115.877 225.108,145.187 233.019,153.087 
		233.019,140.877 201.868,109.735 	"/>
	<polyline style="fill:#157D8E;" points="177.519,262.377 144.019,262.377 177.519,295.886 177.519,262.377 	"/>
	<polyline style="fill:#C2C2C2;" points="270.239,178.107 270.239,266.597 270.239,281.876 177.519,281.876 177.519,295.886 
		177.519,303.876 274.008,303.876 292.238,303.876 292.238,200.107 270.239,178.107 	"/>
	<polyline style="fill:#FFFFFF;" points="292.238,104.877 292.238,303.876 177.519,303.876 177.519,281.876 270.239,281.876 
		270.239,126.876 221.239,126.876 221.239,104.877 292.238,104.877 	"/>
	<polyline style="fill:#FFFFFF;" points="233.019,78.666 233.019,153.087 225.108,145.187 195.708,115.877 201.868,109.735 
		225.108,86.566 233.019,78.666 	"/>
</g>
</svg>