<?xml version="1.0" encoding="UTF-8"?>
<svg version="1.1" xmlns="http://www.w3.org/2000/svg" width="512" height="512">
<path d="M0 0 C0.91297852 0.16628906 1.82595703 0.33257812 2.76660156 0.50390625 C44.3986228 8.16363077 83.16052206 26.40624883 116 53 C116.54446777 53.44005371 117.08893555 53.88010742 117.64990234 54.33349609 C131.72173929 65.81174863 144.93680647 78.57719064 156 93 C156.75925781 93.93070312 157.51851563 94.86140625 158.30078125 95.8203125 C184.16428672 128.07750752 200.61565092 167.52203223 208 208 C208.16371094 208.83031738 208.32742188 209.66063477 208.49609375 210.51611328 C214.23849849 240.36119413 213.15362514 274.33416708 207 304 C206.81808105 304.89251465 206.63616211 305.7850293 206.44873047 306.70458984 C197.76909423 347.8223304 178.88044448 386.83273371 151.1796875 418.4609375 C148.9179442 420.99190774 148.9179442 420.99190774 147 424 C146.34 424 145.68 424 145 424 C144.86013672 423.46858398 144.72027344 422.93716797 144.57617188 422.38964844 C135.76884121 389.32675919 121.55498928 359.49982233 97.55859375 334.69921875 C95.21510038 332.22692269 93.12480451 329.65822824 91 327 C88.47660529 324.50104495 85.72733035 322.27277529 83 320 C82.50661133 319.57831543 82.01322266 319.15663086 81.50488281 318.72216797 C65.98582293 305.49686438 48.73229129 295.01711232 30 287 C29.37609375 286.731875 28.7521875 286.46375 28.109375 286.1875 C24.75455704 284.75381711 21.38644888 283.35718953 18 282 C20.87862476 278.93565751 23.83932327 276.29675145 27.1875 273.75 C51.82169645 254.74414645 67.63958353 227.34209636 72.25 196.5 C75.90070194 164.88231356 67.80089573 133.12002716 48 108 C45.11438607 104.54712864 42.10718489 101.2535378 39 98 C38.4121875 97.33742188 37.824375 96.67484375 37.21875 95.9921875 C18.31037588 75.50811554 -11.88545725 63.88230438 -39.3671875 62.71484375 C-71.78159766 61.92342111 -101.92809088 72.5232392 -125.734375 94.83203125 C-126.48203125 95.54746094 -127.2296875 96.26289062 -128 97 C-128.68578125 97.62261719 -129.3715625 98.24523437 -130.078125 98.88671875 C-150.25138768 117.82893588 -161.75377024 147.80953257 -163 175 C-163.05285156 176.03125 -163.10570312 177.0625 -163.16015625 178.125 C-163.85624021 204.27354538 -155.22996714 231.39668842 -139 252 C-138.19949219 253.02609375 -137.39898437 254.0521875 -136.57421875 255.109375 C-128.39601828 265.31138979 -118.84478661 273.68607415 -108 281 C-109.28015318 283.56030636 -110.1215926 283.60255331 -112.76953125 284.55859375 C-113.56601074 284.85620605 -114.36249023 285.15381836 -115.18310547 285.46044922 C-116.05080566 285.78287598 -116.91850586 286.10530273 -117.8125 286.4375 C-134.18035066 292.76915729 -149.10647576 301.30587511 -163 312 C-163.86882812 312.64582031 -164.73765625 313.29164063 -165.6328125 313.95703125 C-201.77155917 341.97284862 -223.27555216 380.51398527 -235 424 C-235.66 424 -236.32 424 -237 424 C-239.7660502 421.02530377 -242.2228234 417.79558144 -244.73242188 414.60302734 C-245.92573416 413.0939194 -247.14185575 411.60292815 -248.359375 410.11328125 C-272.80119362 379.56100798 -289.12653029 342.20191239 -297 304 C-297.29632324 302.5754248 -297.29632324 302.5754248 -297.59863281 301.12207031 C-303.46766216 271.41191027 -303.86396203 237.74113814 -298 208 C-297.83371094 207.08847168 -297.66742188 206.17694336 -297.49609375 205.23779297 C-289.83732135 163.60385521 -271.59487824 124.84086971 -245 92 C-244.55994629 91.45553223 -244.11989258 90.91106445 -243.66650391 90.35009766 C-232.18825137 76.27826071 -219.42280936 63.06319353 -205 52 C-204.06929688 51.24074219 -203.13859375 50.48148438 -202.1796875 49.69921875 C-169.92831086 23.8403784 -130.47485354 7.37205239 -90 0 C-89.16436523 -0.16371094 -88.32873047 -0.32742188 -87.46777344 -0.49609375 C-59.75836479 -5.78656862 -27.64906696 -5.41678597 0 0 Z " fill="#000000" transform="translate(301,3)"/>
<path d="M0 0 C0.75861328 0.18723633 1.51722656 0.37447266 2.29882812 0.56738281 C13.01461256 3.26262138 23.06396006 7.19159513 33 12 C33.63679687 12.30808594 34.27359375 12.61617188 34.9296875 12.93359375 C50.26589252 20.47650275 63.34759078 30.58818686 76 42 C76.74894531 42.67546875 77.49789063 43.3509375 78.26953125 44.046875 C84.57601665 50.05794459 89.82135304 57.02040414 95 64 C95.63856934 64.85609863 95.63856934 64.85609863 96.29003906 65.72949219 C111.46863351 86.39089401 121.62662959 111.55176709 125 137 C125.10852295 137.65186279 125.2170459 138.30372559 125.32885742 138.9753418 C125.64518817 142.12180327 125.68579745 144.13238531 123.67578125 146.67529297 C121.72016533 148.37635997 119.70120303 149.84816696 117.5625 151.3125 C116.40874878 152.14370361 116.40874878 152.14370361 115.23168945 152.99169922 C112.8425205 154.69452686 110.42732987 156.35213811 108 158 C107.29004883 158.48936035 106.58009766 158.9787207 105.84863281 159.48291016 C62.83375489 188.96513208 12.83195309 204.47573363 -39.25 204.375 C-40.26068542 204.37478851 -41.27137085 204.37457703 -42.31268311 204.37435913 C-58.87663705 204.3398543 -74.74097006 203.37704748 -91 200 C-91.88042969 199.82339844 -92.76085937 199.64679688 -93.66796875 199.46484375 C-112.92587752 195.48349967 -132.53794782 189.0016607 -150.03564453 180.00585938 C-152.31314473 178.83965246 -154.60808137 177.71098566 -156.90234375 176.578125 C-168.53993563 170.74481835 -179.32145406 164.15647973 -189.85351562 156.51074219 C-191.8972898 155.07228966 -193.9789293 153.75070221 -196.109375 152.4453125 C-204.4791524 147.12450996 -204.4791524 147.12450996 -205.7421875 141.97265625 C-205.60887464 138.16435234 -204.90427447 134.67952143 -204 131 C-203.68091196 129.45367597 -203.36463947 127.906769 -203.05078125 126.359375 C-196.88314272 97.77839628 -183.07965562 71.22706451 -163 50 C-161.80713534 48.60874846 -160.61935399 47.21311704 -159.4375 45.8125 C-155.93711896 41.80632995 -152.09461302 38.38607343 -148 35 C-147.26136719 34.37351562 -146.52273437 33.74703125 -145.76171875 33.1015625 C-122.44587847 13.79253602 -93.76376785 1.75192842 -64 -3 C-62.92637207 -3.17200928 -61.85274414 -3.34401855 -60.74658203 -3.52124023 C-40.92002582 -6.05479144 -19.31210226 -4.96157531 0 0 Z " fill="#000000" transform="translate(296,308)"/>
<path d="M0 0 C18.29439049 15.58703098 30.08544781 37.31242286 32.1875 61.3984375 C33.65045544 88.18880898 25.47106159 111.42358263 7.78125 131.5703125 C-8.69494972 148.96724103 -31.11060756 158.43136024 -54.9296875 159.68359375 C-78.2454286 159.70783049 -100.24533297 152.48805131 -117.6875 136.6875 C-118.91533203 135.59888672 -118.91533203 135.59888672 -120.16796875 134.48828125 C-137.27736457 118.43993323 -146.74337739 96.31067825 -147.8125 72.95703125 C-148.34736792 47.65109299 -139.66972964 24.50819366 -122.22998047 6.25390625 C-110.18484089 -5.97806835 -95.39783381 -14.30644646 -78.6875 -18.3125 C-77.84832031 -18.53550781 -77.00914062 -18.75851563 -76.14453125 -18.98828125 C-49.41175431 -25.08086762 -21.15685399 -16.70743205 0 0 Z " fill="#000000" transform="translate(313.6875,114.3125)"/>
</svg>
